<?xml version="1.0" encoding="UTF-8" standalone="no"?>
<svg width="52px" height="51px" viewBox="0 0 52 51" version="1.1" xmlns="http://www.w3.org/2000/svg" xmlns:xlink="http://www.w3.org/1999/xlink" xmlns:sketch="http://www.bohemiancoding.com/sketch/ns">
    <!-- Generator: Sketch 3.2.2 (9983) - http://www.bohemiancoding.com/sketch -->
    <title>github</title>
    <desc>Created with Sketch.</desc>
    <defs></defs>
    <g id="Page-1" stroke="none" stroke-width="1" fill="none" fill-rule="evenodd" sketch:type="MSPage">
        <g id="Evil-Icons" sketch:type="MSArtboardGroup" transform="translate(-72.000000, -605.000000)" stroke="#00E090" fill-opacity="0" fill="#00E090">
            <g id="github" sketch:type="MSLayerGroup" transform="translate(73.000000, 606.000000)">
                <path d="M24.9983333,0 C11.1933333,0 0,11.1933333 0,25.0016667 C0,36.0466667 7.16333333,45.4166667 17.0983333,48.7216667 C18.3483333,48.9516667 18.8033333,48.18 18.8033333,47.5166667 C18.8033333,46.9233333 18.7833333,45.3516667 18.77,43.265 C11.8166667,44.7766667 10.3483333,39.9133333 10.3483333,39.9133333 C9.21166667,37.0266667 7.57333333,36.2566667 7.57333333,36.2566667 C5.30333333,34.7066667 7.745,34.7366667 7.745,34.7366667 C10.2533333,34.9133333 11.575,37.3133333 11.575,37.3133333 C13.805,41.135 17.425,40.0316667 18.85,39.3916667 C19.0766667,37.775 19.7233333,36.6733333 20.4366667,36.0483333 C14.885,35.4183333 9.05,33.2733333 9.05,23.6933333 C9.05,20.9633333 10.0233333,18.7316667 11.6233333,16.985 C11.365,16.3516667 10.5083333,13.81 11.8683333,10.3683333 C11.8683333,10.3683333 13.9666667,9.69666667 18.7433333,12.9316667 C20.7366667,12.3766667 22.875,12.1 25.0016667,12.09 C27.125,12.1 29.2633333,12.3766667 31.26,12.9316667 C36.0333333,9.69666667 38.1283333,10.3683333 38.1283333,10.3683333 C39.4916667,13.81 38.6333333,16.3516667 38.3766667,16.985 C39.98,18.7316667 40.9466667,20.9633333 40.9466667,23.6933333 C40.9466667,33.2966667 35.1016667,35.41 29.5316667,36.03 C30.43,36.8016667 31.23,38.3266667 31.23,40.6583333 C31.23,44.0016667 31.1983333,46.6983333 31.1983333,47.5166667 C31.1983333,48.185 31.65,48.9633333 32.9183333,48.72 C42.8433333,45.4066667 50,36.0433333 50,25.0016667 C50,11.1933333 38.805,0 24.9983333,0" id="Fill-123" sketch:type="MSShapeGroup"></path>
            </g>
        </g>
    </g>
</svg>