<?xml version="1.0" encoding="UTF-8" standalone="no"?>
<svg width="100px" height="100px" viewBox="0 0 100 100" version="1.1" xmlns="http://www.w3.org/2000/svg" xmlns:xlink="http://www.w3.org/1999/xlink" xmlns:sketch="http://www.bohemiancoding.com/sketch/ns">
    <!-- Generator: Sketch 3.2.2 (9983) - http://www.bohemiancoding.com/sketch -->
    <title>icon4</title>
    <desc>Created with Sketch.</desc>
    <defs></defs>
    <g id="Page-2" stroke="none" stroke-width="1" fill="none" fill-rule="evenodd" sketch:type="MSPage">
        <g id="icon4" sketch:type="MSLayerGroup" transform="translate(-150.000000, 0.000000)" fill="#00E090">
            <circle id="fon" fill-opacity="0.5" sketch:type="MSShapeGroup" cx="200" cy="50" r="49"></circle>
            <path d="M200,99.7941176 C172.544118,99.7941176 150.205882,77.4558824 150.205882,50 C150.205882,22.5441176 172.544118,0.205882353 200,0.205882353 C227.455882,0.205882353 249.794118,22.5441176 249.794118,50 C249.794118,77.4558824 227.455882,99.7941176 200,99.7941176 L200,99.7941176 Z M200,5.67647059 C175.558824,5.67647059 155.676471,25.5588235 155.676471,50 C155.676471,74.4411765 175.558824,94.3235294 200,94.3235294 C224.441176,94.3235294 244.323529,74.4411765 244.323529,50 C244.323529,25.5588235 224.441176,5.67647059 200,5.67647059 L200,5.67647059 Z" id="Fill-131" sketch:type="MSShapeGroup"></path>
            <path d="M215.567647,75.6088235 L197.058824,57.1 L197.058824,23.5294118 L202.941176,23.5294118 L202.941176,54.6647059 L219.726471,71.45 L215.567647,75.6088235" id="Fill-132" sketch:type="MSShapeGroup"></path>
        </g>
    </g>
</svg>