<?xml version="1.0" encoding="UTF-8" standalone="no"?>
<svg width="31px" height="25px" viewBox="0 0 31 25" version="1.1" xmlns="http://www.w3.org/2000/svg" xmlns:xlink="http://www.w3.org/1999/xlink" xmlns:sketch="http://www.bohemiancoding.com/sketch/ns">
    <!-- Generator: Sketch 3.3 (11970) - http://www.bohemiancoding.com/sketch -->
    <title>navicon</title>
    <desc>Created with Sketch.</desc>
    <defs></defs>
    <g id="Main-Page-1200" stroke="none" stroke-width="1" fill="none" fill-rule="evenodd" sketch:type="MSPage">
        <g id="Desktop-HD" sketch:type="MSArtboardGroup" transform="translate(-243.000000, -18.000000)" fill="#F4F4F4">
            <g id="navicon" sketch:type="MSLayerGroup" transform="translate(243.500000, 17.543300)">
                <path d="M0,2.0093689 C0,1.45190985 0.447365195,1 0.998153687,1 L29.0018463,1 C29.5531114,1 30,1.44335318 30,2.0093689 L30,3.9906311 C30,4.54809015 29.5526348,5 29.0018463,5 L0.998153687,5 C0.446888627,5 0,4.55664682 0,3.9906311 L0,2.0093689 Z" id="Fill-19" sketch:type="MSShapeGroup"></path>
                <path d="M0,12.0093689 C0,11.4519098 0.447365195,11 0.998153687,11 L29.0018463,11 C29.5531114,11 30,11.4433532 30,12.0093689 L30,13.9906311 C30,14.5480902 29.5526348,15 29.0018463,15 L0.998153687,15 C0.446888627,15 0,14.5566468 0,13.9906311 L0,12.0093689 Z" id="Fill-20" sketch:type="MSShapeGroup"></path>
                <path d="M0,22.0093689 C0,21.4519098 0.447365195,21 0.998153687,21 L29.0018463,21 C29.5531114,21 30,21.4433532 30,22.0093689 L30,23.9906311 C30,24.5480902 29.5526348,25 29.0018463,25 L0.998153687,25 C0.446888627,25 0,24.5566468 0,23.9906311 L0,22.0093689 Z" id="Fill-21" sketch:type="MSShapeGroup"></path>
            </g>
        </g>
    </g>
</svg>