<?xml version="1.0" encoding="UTF-8" standalone="no"?>
<svg width="21px" height="22px" viewBox="0 0 21 22" version="1.1" xmlns="http://www.w3.org/2000/svg" xmlns:xlink="http://www.w3.org/1999/xlink" xmlns:sketch="http://www.bohemiancoding.com/sketch/ns">
    <!-- Generator: Sketch 3.3 (11970) - http://www.bohemiancoding.com/sketch -->
    <title>quests icon \ light-fill</title>
    <desc>Created with Sketch.</desc>
    <defs></defs>
    <g id="Main-Page-1200" stroke="none" stroke-width="1" fill="none" fill-rule="evenodd" sketch:type="MSPage">
        <g id="Desktop-HD" sketch:type="MSArtboardGroup" transform="translate(-258.000000, -19.000000)" fill="#F4F4F4">
            <path d="M266.75,19.930622 C266.75,19.4425946 266.35625,19.0432995 265.875,19.0432995 L258.875,19.0432995 C258.39375,19.0432995 258,19.4425946 258,19.930622 L258,27.0292018 C258,27.5172291 258.39375,27.9165242 258.875,27.9165242 L265.875,27.9165242 C266.35625,27.9165242 266.75,27.5172291 266.75,27.0292018 L266.75,19.930622 L266.75,19.930622 Z M259.75,20.8179445 L265,20.8179445 L265,26.1418793 L259.75,26.1418793 L259.75,20.8179445 Z M279,19.930622 C279,19.4425946 278.60625,19.0432995 278.125,19.0432995 L271.125,19.0432995 C270.64375,19.0432995 270.25,19.4425946 270.25,19.930622 L270.25,27.0292018 C270.25,27.5172291 270.64375,27.9165242 271.125,27.9165242 L278.125,27.9165242 C278.60625,27.9165242 279,27.5172291 279,27.0292018 L279,19.930622 Z M272,20.8179445 L277.25,20.8179445 L277.25,26.1418793 L272,26.1418793 L272,20.8179445 Z M266.75,32.0573972 C266.75,31.5693699 266.35625,31.1700748 265.875,31.1700748 L258.875,31.1700748 C258.39375,31.1700748 258,31.5693699 258,32.0573972 L258,39.155977 C258,39.6440044 258.39375,40.0432995 258.875,40.0432995 L265.875,40.0432995 C266.35625,40.0432995 266.75,39.6440044 266.75,39.155977 L266.75,32.0573972 Z M259.75,32.9447197 L265,32.9447197 L265,38.2686546 L259.75,38.2686546 L259.75,32.9447197 Z M279,32.0573972 C279,31.5693699 278.60625,31.1700748 278.125,31.1700748 L271.125,31.1700748 C270.64375,31.1700748 270.25,31.5693699 270.25,32.0573972 L270.25,39.155977 C270.25,39.6440044 270.64375,40.0432995 271.125,40.0432995 L278.125,40.0432995 C278.60625,40.0432995 279,39.6440044 279,39.155977 L279,32.0573972 Z M272,32.9447197 L277.25,32.9447197 L277.25,38.2686546 L272,38.2686546 L272,32.9447197 L272,32.9447197 Z" id="quests-icon-\-light-fill" sketch:type="MSShapeGroup"></path>
        </g>
    </g>
</svg>