<?xml version="1.0" encoding="UTF-8" standalone="no"?>
<svg width="64px" height="52px" viewBox="0 0 64 52" version="1.1" xmlns="http://www.w3.org/2000/svg" xmlns:xlink="http://www.w3.org/1999/xlink" xmlns:sketch="http://www.bohemiancoding.com/sketch/ns">
    <!-- Generator: Sketch 3.2.2 (9983) - http://www.bohemiancoding.com/sketch -->
    <title>twitter</title>
    <desc>Created with Sketch.</desc>
    <defs></defs>
    <g id="Page-1" stroke="none" stroke-width="1" fill="none" fill-rule="evenodd" sketch:type="MSPage">
        <g id="Evil-Icons" sketch:type="MSArtboardGroup" transform="translate(-228.000000, -599.000000)" fill="#00E090">
            <g id="twitter" sketch:type="MSLayerGroup" transform="translate(224.000000, 588.000000)">
                <path d="M60.5053419,19.2333333 C63.1827613,17.6083333 65.2433032,15.0343333 66.2071742,11.975 C63.7032516,13.4786667 60.933729,14.575 57.9757161,15.1578333 C55.6045935,12.5968333 52.2310452,11 48.5105032,11 C41.347871,11 35.5517935,16.876 35.5517935,24.1213333 C35.5517935,25.1505 35.6588903,26.1536667 35.8859355,27.1156667 C25.1098581,26.574 15.5504,21.3458333 9.16529032,13.3963333 C8.05362581,15.3333333 7.41104516,17.5953333 7.41104516,19.9916667 C7.41104516,24.5416667 9.71362581,28.563 13.194271,30.9203333 C11.0523355,30.8661667 9.04534194,30.2703333 7.30394839,29.2801667 L7.30394839,29.4448333 C7.30394839,35.8083333 11.7763097,41.1036667 17.7051871,42.3083333 C16.6213677,42.6051667 15.4711484,42.7676667 14.2930839,42.7676667 C13.4620129,42.7676667 12.6459355,42.6875 11.8555613,42.525 C13.5027097,47.738 18.2963613,51.5296667 23.9724903,51.638 C19.5408258,55.1588333 13.9439484,57.2583333 7.86727742,57.2583333 C6.8220129,57.2583333 5.79174194,57.1911667 4.77432258,57.0698333 C10.4911484,60.8333333 17.3046452,63 24.612929,63 C48.4826581,63 61.5227613,42.9995 61.5227613,25.651 C61.5227613,25.0833333 61.5077677,24.5135 61.4820645,23.9588333 C64.0116903,22.1041667 66.2071742,19.8031667 67.9485677,17.162 C65.6181419,18.2041667 63.1292129,18.9083333 60.5053419,19.2333333 Z" id="Fill-122" sketch:type="MSShapeGroup"></path>
            </g>
        </g>
    </g>
</svg>