<?xml version="1.0" encoding="UTF-8" standalone="no"?>
<svg width="85px" height="48px" viewBox="0 0 85 48" version="1.1" xmlns="http://www.w3.org/2000/svg" xmlns:xlink="http://www.w3.org/1999/xlink" xmlns:sketch="http://www.bohemiancoding.com/sketch/ns">
    <!-- Generator: Sketch 3.2.2 (9983) - http://www.bohemiancoding.com/sketch -->
    <title>vk</title>
    <desc>Created with Sketch.</desc>
    <defs></defs>
    <g id="Page-1" stroke="none" stroke-width="1" fill="none" fill-rule="evenodd" sketch:type="MSPage">
        <g id="Evil-Icons" sketch:type="MSArtboardGroup" transform="translate(-128.000000, -606.000000)" stroke="#00E090" fill-opacity="0" fill="#00E090">
            <g id="vk" sketch:type="MSLayerGroup" transform="translate(129.000000, 606.000000)">
                <path d="M40.5517879,47.3025 L45.5066364,47.3025 C45.5066364,47.3025 47.0031515,47.14 47.7677576,46.32 C48.472,45.57 48.4493636,44.1575 48.4493636,44.1575 C48.4493636,44.1575 48.3512727,37.55 51.4373636,36.5775 C54.4781818,35.6175 58.3842121,42.9625 62.5241515,45.7875 C65.653,47.925 68.0323333,47.4575 68.0323333,47.4575 L79.1015152,47.3025 C79.1015152,47.3025 84.8913939,46.9475 82.1448485,42.4225 C81.921,42.0525 80.5452121,39.075 73.9152727,32.9575 C66.9734545,26.555 67.9040606,27.59 76.2644242,16.515 C81.3550909,9.77 83.3923636,5.6525 82.7560303,3.8875 C82.1498788,2.2075 78.4048182,2.6525 78.4048182,2.6525 L65.9422424,2.7275 C65.9422424,2.7275 65.0166667,2.6025 64.3325455,3.01 C63.6635152,3.41 63.2334242,4.34 63.2334242,4.34 C63.2334242,4.34 61.2590303,9.56 58.630697,13.9975 C53.0797576,23.365 50.8613939,23.86 49.9534242,23.2775 C47.8432121,21.9225 48.3713939,17.8325 48.3713939,14.9275 C48.3713939,5.85 49.7572424,2.065 45.6726364,1.085 C44.3194848,0.76 43.3209697,0.545 39.8550909,0.51 C35.408303,0.465 31.6456364,0.525 29.515303,1.5625 C28.0967576,2.2525 27.0026667,3.79 27.6691818,3.8775 C28.4941515,3.9875 30.3578788,4.3775 31.3488485,5.715 C32.6240303,7.4425 32.5812727,11.3225 32.5812727,11.3225 C32.5812727,11.3225 33.3131818,22.0075 30.8659394,23.3325 C29.1858182,24.245 26.8819394,22.385 21.9346364,13.8875 C19.3993636,9.535 17.4853333,4.7225 17.4853333,4.7225 C17.4853333,4.7225 17.1181212,3.825 16.4591515,3.3425 C15.6593333,2.76 14.5451212,2.575 14.5451212,2.575 L2.70127273,2.6525 C2.70127273,2.6525 0.923060606,2.7025 0.271636364,3.47 C-0.309363636,4.1525 0.223848485,5.5675 0.223848485,5.5675 C0.223848485,5.5675 9.49469697,27.1275 19.9954545,37.9925 C29.6209394,47.9575 40.5517879,47.3025 40.5517879,47.3025" id="Fill-128" sketch:type="MSShapeGroup"></path>
            </g>
        </g>
    </g>
</svg>